<svg width="190" height="49" viewBox="0 0 190 49" fill="none" xmlns="http://www.w3.org/2000/svg">
<g clip-path="url(#clip0_119_26013)">
<path pathLength="1" fill-rule="evenodd" clip-rule="evenodd" d="M188.858 35.1901H186.504L178.711 25.8953L170.918 35.1901H168.564L177.534 24.4747L168.361 13.5159H170.715L178.711 23.0541L186.707 13.5159H189.061L179.888 24.4747L188.858 35.1901Z" fill="#D91A1A"/>
<path pathLength="1" fill-rule="evenodd" clip-rule="evenodd" d="M166.818 25.2459H158.335L159.837 23.46H168.645V24.353C168.645 30.3194 163.815 35.1901 157.808 35.1901C151.801 35.1901 147.011 30.3194 147.011 24.353C147.011 18.3865 151.841 13.5159 157.848 13.5159C160.852 13.5159 163.571 14.7335 165.52 16.7223L164.342 18.1024C162.719 16.3976 160.405 15.3423 157.848 15.3423C152.856 15.3423 148.838 19.3606 148.838 24.353C148.838 29.3453 152.856 33.3636 157.848 33.3636C162.516 33.3636 166.372 29.8324 166.818 25.2459Z" fill="#D91A1A"/>
<path pathLength="1" d="M93.0104 19.4553C90.9404 19.4553 89.0328 20.4294 87.7745 22.053V19.78H86.0698V39.3842H87.8151V32.3624C89.0734 33.986 90.981 34.9601 93.051 34.9601C97.0287 34.9601 100.276 31.4695 100.276 27.2077C100.276 22.9459 96.9881 19.4553 93.0104 19.4553ZM93.0104 33.296C89.9663 33.296 87.4904 30.5765 87.4904 27.2077C87.4904 23.8389 89.9663 21.1194 93.0104 21.1194C96.0546 21.1194 98.5304 23.8389 98.5304 27.2077C98.5304 30.5765 96.0546 33.296 93.0104 33.296Z" fill="#D91A1A"/>
<path pathLength="1" d="M74.0151 13.7324C68.3327 13.7324 63.665 18.603 63.665 24.5695C63.665 30.536 68.2921 35.4066 74.0151 35.4066C79.738 35.4066 84.3651 30.536 84.3651 24.5695C84.3651 18.603 79.6974 13.7324 74.0151 13.7324ZM74.0151 33.7425C69.1851 33.7425 65.3292 29.6025 65.3292 24.5289C65.3292 19.4554 69.2256 15.3154 74.0151 15.3154C78.8045 15.3154 82.701 19.4554 82.701 24.5289C82.701 29.6025 78.8045 33.7425 74.0151 33.7425Z" fill="#D91A1A"/>
<path pathLength="1" d="M124.06 19.4961C123.492 19.5367 122.924 19.6584 122.396 19.9426C121.341 20.5108 120.529 21.4037 120.083 22.5402L120.042 22.6214V19.902H118.337V34.5544H120.042V34.4732C120.042 31.835 120.042 29.5214 120.042 26.8832C120.042 25.9091 120.204 24.9755 120.57 24.0826C120.894 23.2708 121.382 22.5808 122.031 22.0126C122.762 21.3632 123.736 21.079 124.71 21.2414L125.197 21.3226C125.278 20.8355 125.522 20.2267 125.643 19.7396C125.116 19.5773 124.588 19.4961 124.06 19.4961Z" fill="#D91A1A"/>
<path pathLength="1" d="M108.962 19.4553C104.984 19.4553 101.737 22.9459 101.737 27.2077C101.737 31.4695 104.984 34.9601 108.962 34.9601C111.803 34.9195 114.36 33.2148 115.456 30.6171L113.954 29.7648C113.142 31.8348 111.153 33.2554 108.921 33.296C106.039 33.296 103.685 30.8606 103.401 27.7759H116.105C116.105 27.6136 116.105 27.4106 116.105 27.2483C116.146 22.6618 113.183 19.4553 108.962 19.4553ZM108.962 21.16C111.965 21.16 114.076 23.1895 114.441 26.3148H103.482C103.888 23.3924 106.202 21.16 108.962 21.16Z" fill="#D91A1A"/>
<path pathLength="1" d="M137.658 19.8206V22.053C136.399 20.4294 134.492 19.4553 132.422 19.4553C128.444 19.4553 125.197 22.9459 125.197 27.2077C125.197 31.4695 128.444 34.9601 132.422 34.9601C134.492 34.9601 136.399 33.986 137.658 32.3624V34.5542H139.362V19.8206H137.658ZM132.422 33.296C129.378 33.296 126.902 30.5765 126.902 27.2077C126.902 23.8389 129.378 21.1194 132.422 21.1194C135.466 21.1194 137.942 23.8389 137.942 27.2077C137.942 30.5765 135.506 33.296 132.422 33.296Z" fill="#D91A1A"/>
<path pathLength="1" d="M39.1272 40.6695C36.5296 42.3742 33.5666 43.2671 30.5631 43.2671C25.6113 43.2671 20.9437 40.8724 17.6966 36.6918L17.656 36.6512C15.1801 33.7289 13.7189 29.4265 13.5972 24.8806V23.8253C13.7189 19.2794 15.1801 14.977 17.6966 12.0141C20.9437 7.83349 25.6113 5.43878 30.5631 5.43878C33.5666 5.43878 36.5296 6.33172 39.1272 8.03643C43.7543 12.217 46.3926 18.1429 46.3926 24.353C46.3926 30.5224 43.7543 36.4889 39.1272 40.6695ZM23.379 46.2707C11.6083 45.743 2.43536 36.083 2.43536 24.3124C2.43536 12.217 12.2983 2.31348 24.4343 2.31348C24.4343 2.31348 24.4748 2.31348 24.5154 2.31348C26.4231 2.31348 28.3307 2.59759 30.1572 3.08465C24.6372 3.20642 19.4825 5.92584 15.9513 10.5123C13.1507 13.8406 11.446 18.63 11.3648 23.7441V24.84C11.4866 29.9136 13.1507 34.703 15.9513 38.0312C19.5231 42.6583 24.6778 45.3777 30.1978 45.4995C27.9654 46.1489 25.6519 46.3924 23.379 46.2707ZM40.5884 6.20996C36.1643 2.2323 30.4413 0.0405273 24.4748 0.0405273C24.4748 0.0405273 24.4342 0.0405273 24.3937 0.0405273C10.9995 0.0405273 0.121826 10.9182 0.121826 24.3124C0.121826 37.3006 10.2689 47.9754 23.2572 48.5842C23.6225 48.5842 24.0284 48.6248 24.3937 48.6248C30.3601 48.6248 36.1237 46.433 40.5884 42.4554C45.7431 37.8689 48.7061 31.253 48.7061 24.353C48.7061 17.4123 45.7431 10.837 40.5884 6.20996Z" fill="#D91A1A"/>
<path pathLength="1" d="M28.8584 9.0105C33.2014 11.8111 36.1643 17.6152 36.1643 24.3529C36.1643 31.0906 33.1608 36.8947 28.8584 39.6953C34.3784 39.2082 38.8025 32.5517 38.8025 24.3529C38.8025 16.154 34.3784 9.49756 28.8584 9.0105Z" fill="#D91A1A"/>
</g>
<defs>
<clipPath id="clip0_119_26013">
<rect width="189.142" height="48.706" fill="white"/>
</clipPath>
</defs>
</svg>
